<svg id="brands-and-logotypes" xmlns="http://www.w3.org/2000/svg" width="40.269" height="40.527" viewBox="0 0 40.269 40.527">
  <path id="Trazado_1" data-name="Trazado 1" d="M9.5,112.546a10.7,10.7,0,0,1,1.514-5.5v-6.832H4.181a20.274,20.274,0,0,0,0,24.662h6.832v-6.832A10.7,10.7,0,0,1,9.5,112.546Z" transform="translate(0 -92.282)" fill="#fbbd00"/>
  <path id="Trazado_2" data-name="Trazado 2" d="M200.749,374.468,196,379.217l4.749,4.749a20.11,20.11,0,0,0,12.331-4.181v-6.824h-6.824A10.764,10.764,0,0,1,200.749,374.468Z" transform="translate(-180.656 -343.439)" fill="#0f9d58"/>
  <path id="Trazado_3" data-name="Trazado 3" d="M59.655,325.477l-6.832,6.832a20.59,20.59,0,0,0,1.754,2,20.131,20.131,0,0,0,14.329,5.935v-9.5A10.769,10.769,0,0,1,59.655,325.477Z" transform="translate(-48.642 -299.714)" fill="#31aa52"/>
  <path id="Trazado_4" data-name="Trazado 4" d="M276.264,201.968a20.438,20.438,0,0,0-.332-3.671l-.178-.974H256v9.5h9.614a10.716,10.716,0,0,1-4.107,4.4l6.824,6.824a20.589,20.589,0,0,0,2-1.754A20.131,20.131,0,0,0,276.264,201.968Z" transform="translate(-235.994 -181.705)" fill="#3c79e6"/>
  <path id="Trazado_5" data-name="Trazado 5" d="M208.361,12.652l.84.84,6.717-6.716-.84-.84A20.131,20.131,0,0,0,200.749,0L196,4.749,200.749,9.5A10.7,10.7,0,0,1,208.361,12.652Z" transform="translate(-180.744 0)" fill="#cf2d48"/>
  <path id="Trazado_6" data-name="Trazado 6" d="M68.9,9.5V0A20.132,20.132,0,0,0,54.576,5.935a20.568,20.568,0,0,0-1.754,2l6.832,6.832A10.77,10.77,0,0,1,68.9,9.5Z" transform="translate(-48.641 0)" fill="#eb4132"/>
</svg>
