<svg height="512" viewBox="6 0 45 36" width="512" xmlns="http://www.w3.org/2000/svg">
<!-- <g id="Page-1" fill="none" fill-rule="evenodd"> -->
<g id="038---Support" fill-rule="nonzero" transform="translate(-1)">
<!-- Hands -->
<!-- <path id="Shape" d="m58.56 36.2-8.8 19.15-13.07-7.49 1.6-3.47c.6019133-1.3192296 1.6161618-2.4071778 2.89-3.1 1.3642353-.6295825 2.4896941-1.6814131 3.21-3l1.54-3.29c.5019238-1.1169746 1.5385788-1.9010628 2.75-2.08.1230684-.0114328.2469316-.0114328.37 0 .7321457.0845094 1.3584836.5648299 1.63 1.25l.7-1.5c.1284239-.2744148.2095656-.5685536.24-.87l1.75-13.6c.0883098-.8340716.7077983-1.5142942 1.53-1.68.5419538-.1101363 1.1053206.0090494 1.5562353.3292367s.7491226.812792.8237647 1.3607633l1.72 15.35c.1022312.9038088-.0501676 1.8182018-.44 2.64z" fill="#fdd7ad"/>
<path id="Shape" d="m48.8 38.26c-.443098.9621309-.5859762 2.0354599-.41 3.08l.1.63c.08394.5435979-.2868937 1.0529357-.83 1.14h-.16c-.4986434.0056372-.9252306-.3569619-1-.85l-.1-.62c-.2356274-1.4349326-.0262423-2.9076081.6-4.22l2.06-4.51c.7321457.0845094 1.3584836.5648299 1.63 1.25z" fill="#f9c795"/>
<path id="Shape" d="m23.86 49.06-13.79 5.94-8.63-18.8c-.38983241-.8217982-.54223124-1.7361912-.44-2.64l1.72-15.36c.07464211-.5479713.37285004-1.040576.8237647-1.3607633.45091467-.3201873 1.0142815-.439373 1.5562353-.3292367.82220173.1657058 1.44169019.8459284 1.53 1.68l1.75 13.6c.01086662.1458269.03769366.2900223.08.43 0 .1.07.2.11.3-.00394399.0399028-.00394399.0800972 0 .12l.7 1.51c.29057715-.7113508.9630082-1.1933245 1.73-1.24.1230684-.0114328.2469316-.0114328.37 0 1.1948954.1966962 2.2101021.9825414 2.7 2.09l1.54 3.36c.7203059 1.3185869 1.8457647 2.3704175 3.21 3 1.2738382.6928222 2.2880867 1.7807704 2.89 3.1z" fill="#fdd7ad"/>
<path id="Shape" d="m13.58 41.69-.09.61c-.0792284.4890578-.5046072.846376-1 .84h-.16c-.5390497-.0918867-.904331-.5997167-.82-1.14l.1-.62c.1823776-1.0444199.0392451-2.1196597-.41-3.08l-1.88-4.13c.27671864-.7038649.9268085-1.1914323 1.68-1.26l2 4.54c.6204407 1.3213391.8227894 2.8005775.58 4.24z" fill="#f9c795"/>
<rect id="Rectangle-path" fill="#955ba5" height="18" rx="2" transform="matrix(.417 -.909 .909 .417 -22.687 68.942)" width="6" x="39.423" y="43.165"/>
<rect id="Rectangle-path" fill="#955ba5" height="18" rx="2" transform="matrix(-.417 -.909 .909 -.417 -22.479 89.932)" width="6" x="14.589" y="43.172"/> -->
<!-- End hands -->
<path id="Shape" d="m48.81 6c-1.4611555-3.59107641-4.9332942-5.95575661-8.81-6-5.58 0-8.66 4.32-9.64 6-.24.41-.36.66-.36.66s-.12-.25-.36-.66c-1-1.68-4.06-6-9.64-6-3.8767058.04424339-7.3488445 2.40892359-8.81 6-.7970649 1.75508258-1.20310522 3.66244828-1.19 5.59v.41c.068374 2.0971609.6193072 4.1503279 1.61 6 1.2055092 2.1918215 2.7024612 4.2101837 4.45 6 1.75 1.88 3.85 3.85 6.22 6s4.92 4.41 7.72 7c2.8-2.59 5.39-4.88 7.71-7s4.47-4.12 6.22-6c1.7475388-1.7898163 3.2444908-3.8081785 4.45-6 .9941738-1.8488271 1.5485413-3.9020398 1.62-6 0-.14 0-.27 0-.41.0131052-1.92755172-.3929351-3.83491742-1.19-5.59z" fill="#f0c419"/>
<path id="Shape" d="m29.64 6h-18.45c1.4611555-3.59107641 4.9332942-5.95575661 8.81-6 5.58 0 8.66 4.32 9.64 6z" fill="#e64c3c"/>
<path id="Shape" d="m48.81 6h-18.45c1-1.68 4.06-6 9.64-6 3.8767058.04424339 7.3488445 2.40892359 8.81 6z" fill="#e64c3c"/>
<path id="Shape" d="m50 11.59c0 .14 0 .27.0003074.41h-40.00061482c.00030742-.14.00030742-.27.00030742-.41-.01310522-1.92755172.3929351-3.83491742 1.19-5.59h18.45c.24.41.36.66.36.66s.12-.25.36-.66h18.45c.7970649 1.75508258 1.2031052 3.66244828 1.19 5.59z" fill="#f29c1f"/>
<path id="Shape" d="m48.38 18c-1.2055092 2.1918215-2.7024612 4.2101837-4.45 6h-27.86c-1.7475388-1.7898163-3.2444908-3.8081785-4.45-6z" fill="#2fa8cc"/>
<path id="Shape" d="m43.93 24c-1.75 1.88-3.85 3.85-6.22 6h-15.42c-2.37-2.15-4.47-4.12-6.22-6z" fill="#4fba6f"/>
<path id="Shape" d="m37.71 30c-2.32 2.12-4.91 4.41-7.71 7-2.8-2.59-5.39-4.88-7.71-7z" fill="#955ba5"/>
<!-- </g> -->
</g>
</svg>
