<?xml version="1.0" encoding="iso-8859-1"?>
<!-- Generator: Adobe Illustrator 19.0.0, SVG Export Plug-In . SVG Version: 6.00 Build 0)  -->
<svg version="1.1" id="Capa_1" xmlns="http://www.w3.org/2000/svg" xmlns:xlink="http://www.w3.org/1999/xlink" x="0px" y="0px"
	 viewBox="0 0 512 512" style="enable-background:new 0 0 512 512;" xml:space="preserve">
<g>
	<g>
		<path d="M376,0c-41.353,0-76,34.647-76,76c0,41.353,34.647,75,76,75c41.353,0,76-33.647,76-75C452,34.647,417.353,0,376,0z"/>
	</g>
</g>
<g>
	<g>
		<path d="M195,61c-33.091,0-60,26.909-60,60s26.909,60,60,60s60-26.909,60-60S228.091,61,195,61z"/>
	</g>
</g>
<g>
	<g>
		<polygon points="177.847,305.614 120,334.543 120,512 240,512 240,355.976 		"/>
	</g>
</g>
<g>
	<g>
		<polygon points="270,357.99 270,512 361,512 361,324.467 		"/>
	</g>
</g>
<g>
	<g>
		<path d="M511.681,237.102c0.2,2.913-0.167,5.832-1.659,8.439l-34.937,61.128c-2.754,4.805-7.192,7.28-13.447,7.559
			c-5.522-0.161-10.518-3.34-12.993-8.291l-5.786-11.587L391,313.294V512h106c8.401,0,15-6.601,15-15V237.999L511.681,237.102z"/>
	</g>
</g>
<g>
	<g>
		<path d="M0,394.554v0.046V497c0,8.399,6.599,15,15,15h75V349.545L0,394.554z"/>
	</g>
</g>
<g>
	<g>
		<path d="M60,151c-24.814,0-45,20.186-45,45c0,24.814,20.186,45,45,45c0.564,0,1.088-0.146,1.646-0.167
			c3.179-27.14,14.588-52.537,32.935-73.275C86.321,157.535,73.973,151,60,151z"/>
	</g>
</g>
<g>
	<g>
		<path d="M454.709,145.969C435.477,167.311,406.919,181,376,181s-59.477-13.689-78.71-35.032C262.747,170.444,240,210.535,240,256
			v25.074l19.746,15.956l155.233-56.44l-2.256-4.526c-2.476-4.951-2.021-10.854,1.172-15.381c3.193-4.497,9.701-6.768,15.106-6.211
			l69.858,8.745c4.349,0.536,7.95,3.181,10.351,6.768C502.367,195.468,482.464,165.636,454.709,145.969z"/>
	</g>
</g>
<g>
	<g>
		<path d="M195,211c-28.017,0-52.773-13.134-69.291-33.268C103.987,196.983,90,224.766,90,256v26.453l76.582-38.289
			c9.346-4.717,21.226-3.999,30.044,1.86L210,256.831V256c0-16.78,2.69-32.908,7.39-48.16C210.19,209.702,202.773,211,195,211z"/>
	</g>
</g>
<g>
	<g>
		<path d="M60,282.455V271c-19.653,0-37.423-7.762-50.81-20.178C3.494,261.325,0,273.195,0,286v41.45l62.391-31.194
			C60.969,291.88,60,287.3,60,282.455z"/>
	</g>
</g>
<g>
</g>
<g>
</g>
<g>
</g>
<g>
</g>
<g>
</g>
<g>
</g>
<g>
</g>
<g>
</g>
<g>
</g>
<g>
</g>
<g>
</g>
<g>
</g>
<g>
</g>
<g>
</g>
<g>
</g>
</svg>
